# AST/ASF file generated using VICON BodyLanguage
# -----------------------------------------------
:version 1.10
:name VICON
:units
  mass 1.0
  length 0.45
  angle deg
:documentation
   .ast/.asf automatically generated from VICON data using
   VICON BodyBuilder and BodyLanguage model FoxedUp or BRILLIANT.MOD
:root
   order TX TY TZ RX RY RZ
   axis XYZ
   position 0 0 0  
   orientation 0 0 0 
:bonedata
  begin
     id 1 
     name lhipjoint
     direction 0.588788 -0.725889 0.355548 
     length 2.37778 
     axis 0 0 0  XYZ
  end
  begin
     id 2 
     name lfemur
     direction 0.34202 -0.939693 0  
     length 6.86393  
     axis 0 0 20  XYZ
    dof rx ry rz
    limits (-160.0 20.0)
           (-70.0 70.0)
           (-60.0 70.0)
  end
  begin
     id 3 
     name ltibia
     direction 0.34202 -0.939693 0   
     length 7.32851   
     axis 0 0 20   XYZ
    dof rx
    limits (-10.0 170.0)
  end
  begin
     id 4 
     name lfoot
     direction 0.0626533 -0.172138 0.983078   
     length 1.98929   
     axis -90 7.62852e-016 20   XYZ
    dof rx rz
    limits (-45.0 90.0)
           (-70.0 20.0)
  end
  begin
     id 5 
     name ltoes
     direction 1.53647e-011 -4.21734e-011 1   
     length 1.00479   
     axis -90 7.62852e-016 20   XYZ
    dof rx
    limits (-90.0 20.0)
  end
  begin
     id 6 
     name rhipjoint
     direction -0.59141 -0.724168 0.354705   
     length 2.38343  
     axis 0 0 0  XYZ 
  end
  begin
     id 7 
     name rfemur
     direction -0.34202 -0.939693 0   
     length 6.95589   
     axis 0 0 -20   XYZ
    dof rx ry rz
    limits (-160.0 20.0)
           (-70.0 70.0)
           (-70.0 60.0)
  end
  begin
     id 8 
     name rtibia
     direction -0.34202 -0.939693 0   
     length 7.32327   
     axis 0 0 -20   XYZ
    dof rx
    limits (-10.0 170.0)
 end
 begin
     id 9 
     name rfoot
     direction -0.0660461 -0.18146 0.981178   
     length 1.85272  
     axis -90 -7.62852e-016 -20   XYZ
    dof rx rz
    limits (-45.0 90.0)
           (-20.0 70.0)
  end
  begin
     id 10 
     name rtoes
     direction -1.53586e-011 -4.21988e-011 1   
     length 0.93746   
     axis -90 -7.62852e-016 -20   XYZ
    dof rx
    limits (-90.0 20.0)
  end
  begin
     id 11 
     name lowerback
     direction -0.0107982 0.991059 0.13299   
     length 1.98691   
     axis 0 0 0   XYZ
    dof rx ry rz
    limits (-20.0 45.0)
           (-30.0 30.0)
           (-30.0 30.0)
  end
  begin
     id 12 
     name upperback
     direction 0.0076296 0.999916 0.0104576   
     length 1.99501   
     axis 0 0 0   XYZ
    dof rx ry rz
    limits (-20.0 45.0)
           (-30.0 30.0)
           (-30.0 30.0)
  end
  begin
     id 13 
     name thorax
     direction 0.01176 0.998615 -0.0512909   
     length 2.03144   
     axis 0 0 0   XYZ
    dof rx ry rz
    limits (-20.0 45.0)
           (-30.0 30.0)
           (-30.0 30.0)
  end
  begin
     id 14 
     name lowerneck
     direction -0.0171909 0.999644 0.0204011   
     length 1.71818   
     axis 0 0 0   XYZ
    dof rx ry rz
    limits (-20.0 45.0)
           (-30.0 30.0)
           (-30.0 30.0)
  end
  begin
     id 15 
     name upperneck
     direction 0.0250902 0.997482 -0.0663316   
     length 1.66199   
     axis 0 0 0   XYZ
    dof rx ry rz
    limits (-20.0 45.0)
           (-30.0 30.0)
           (-30.0 30.0)
  end
  begin
     id 16
     name head
     direction 0.00881535 0.99956 -0.0283365  
     length 1.81545  
     axis 0 0 0   XYZ
    dof rx ry rz
    limits (-20.0 45.0)
           (-30.0 30.0)
           (-30.0 30.0)
  end
  begin
     id 17 
     name lclavicle
     direction 0.840411 0.486876 -0.238035  
     length 3.30409  
     axis 0 0 0   XYZ
    dof ry rz
    limits (-20.0 10.0)
           (0.0 20.0)
  end
  begin
     id 18 
     name lhumerus
     direction 1 -4.48977e-011 -5.16239e-027   
     length 4.62672   
     axis 180 -30 -90   XYZ
    dof rx ry rz
    limits (-60.0 90.0)
           (-90.0 90.0)
           (-90.0 90.0)
  end
  begin
     id 19
     name lradius
     direction 1 -4.48977e-011 -8.71171e-027   
     length 3.11018   
     axis 180 -30 -90   XYZ
    dof rx
    limits (-10.0 170.0)
  end
  begin
     id 20
     name lwrist
     direction 1 -4.48912e-011 -1.03764e-026   
     length 1.55509   
     axis 9.09556e-015 90 90   XYZ
    dof ry
    limits (-180.0 0.0)
 end
  begin
     id 21 
     name lhand
     direction 1 -4.49072e-011 -2.07528e-026   
     length 0.743834   
     axis 1.3242e-014 90 90   XYZ
    dof rx rz
    limits (-90.0 90.0)
           (-45.0 45.0)
  end
  begin
     id 22 
     name lfingers
     direction 1 -4.48909e-011 -4.15056e-026   
     length 0.599698   
     axis 2.64841e-014 90 90   XYZ
    dof rx
    limits (0.0 90.0)
  end
  begin
     id 23
     name lthumb
     direction 0.707107 -6.35013e-011 0.707107   
     length 0.86105   
     axis -90 45 2.85299e-015   XYZ
    dof rx rz
    limits (-45.0 45.0)
           (-45.0 45.0)
  end
  begin
     id 24 
     name rclavicle
     direction -0.835208 0.500237 -0.228452   
     length 3.2716  
     axis 0 0 0   XYZ 
    dof ry rz
    limits (-10.0 20.0)
           (-20.0 0.0)
  end
  begin
     id 25 
     name rhumerus
     direction -1 -4.48978e-011 -5.1953e-028  
     length 4.55919   
     axis 180 30 90   XYZ
    dof rx ry rz
    limits (-90.0 60.0)
           (-90.0 90.0)
           (-90.0 90.0)
  end
  begin
     id 26 
     name rradius
     direction -1 -4.48961e-011 -5.99546e-027   
     length 3.22748   
     axis 180 30 90   XYZ
    dof rx
    limits (-10.0 170.0)
  end
  begin
     id 27 
     name rwrist
     direction -1 -4.48986e-011 -1.03764e-026   
     length 1.61374   
     axis 9.09556e-015 -90 -90   XYZ
    dof ry
    limits (-180.0 0.0)
  end
  begin
     id 28
     name rhand
     direction -1 -4.4899e-011 -2.07528e-026   
     length 0.700882   
     axis 1.3242e-014 -90 -90   XYZ
    dof rx rz
    limits (-90.0 90.0)
           (-45.0 45.0)
  end
  begin
     id 29
     name rfingers
     direction -1 -4.48991e-011 -4.15056e-026   
     length 0.565069   
     axis 2.64841e-014 -90 -90   XYZ
    dof rx
    limits (0.0 90.0)
  end
  begin
     id 30
     name rthumb
     direction -0.707107 -6.34804e-011 0.707107   
     length 0.811329   
     axis -90 -45 -2.85299e-015   XYZ
    dof rx rz
    limits (-45.0 45.0)
           (-45.0 45.0)
  end
:hierarchy
  begin
    root lhipjoint rhipjoint lowerback
    lhipjoint lfemur
    lfemur ltibia
    ltibia lfoot
    lfoot ltoes
    rhipjoint rfemur
    rfemur rtibia
    rtibia rfoot
    rfoot rtoes
    lowerback upperback
    upperback thorax
    thorax lowerneck lclavicle rclavicle
    lowerneck upperneck
    upperneck head
    lclavicle lhumerus
    lhumerus lradius
    lradius lwrist
    lwrist lhand lthumb
    lhand lfingers
    rclavicle rhumerus
    rhumerus rradius
    rradius rwrist
    rwrist rhand rthumb
    rhand rfingers
  end

#!OML:ASF F:\VICON\USERDATA\INSTALL\SteveWalk\SteveWalk.ASF
:FULLY-SPECIFIED
:DEGREES
81
root -0.239455 15.8973 -23.2253 16.8151 4.93097 1.91947
lowerback -14.7647 -3.72845 -0.466017
upperback -5.33744 -4.90711 1.42412
thorax 2.7749 -2.42686 0.920921
lowerneck -2.49974 -1.01525 -1.33895
upperneck 5.91974 -1.33343 0.623102
head 2.30153 -0.677395 0.388653
rclavicle 2.4494e-014 7.95139e-015
rhumerus -95.4825 -33.8582 11.3243
rradius 10.7183
rwrist 65.3894
rhand -14.8895 -34.9895
rfingers 7.12502
rthumb 11.2713 -64.6667
lclavicle 2.4494e-014 7.95139e-015
lhumerus -18.7378 -3.93344 79.496
lradius 58.0663
lwrist 11.4104
lhand -19.5264 -19.3139
lfingers 7.12502
lthumb 6.79705 10.557
rfemur -51.4632 -3.94957 23.3657
rtibia 28.1319
rfoot -3.0262 5.29844
rtoes -22.2394
lfemur 1.55945 0.320638 -21.3497
ltibia 28.3197
lfoot -10.7405 -15.0689
ltoes -30.0941
82
root -0.236085 15.9219 -22.9692 16.9985 4.92272 1.4347
lowerback -14.9845 -3.68702 0.351895
upperback -5.29824 -4.97899 1.66405
thorax 2.8883 -2.46531 0.68725
lowerneck -2.88886 -0.936092 -1.34069
upperneck 5.83839 -1.20337 0.31667
head 2.34151 -0.620396 0.294204
rclavicle -5.27634e-014 1.03368e-014
rhumerus -96.0896 -34.3007 12.7343
rradius 10.7181
rwrist 66.4029
rhand -15.4014 -34.812
rfingers 7.12502
rthumb 10.7776 -64.5155
lclavicle -5.27634e-014 1.03368e-014
lhumerus -19.5837 -2.93841 79.7017
lradius 58.7652
lwrist 11.6853
lhand -19.6176 -19.4291
lfingers 7.12502
lthumb 6.70896 10.4446
rfemur -51.714 -3.07146 23.281
rtibia 30.0879
rfoot -3.37508 4.13307
rtoes -27.2917
lfemur -0.216935 0.559065 -20.802
ltibia 31.5471
lfoot -6.79878 -16.5746
ltoes -24.2293
83
root -0.224501 15.9205 -22.7077 17.0343 4.97481 1.03915
lowerback -15.0843 -3.60548 1.20567
upperback -5.24561 -5.0022 1.81335
thorax 2.93826 -2.47963 0.355419
lowerneck -3.51077 -0.918245 -1.30388
upperneck 6.09976 -1.14996 -0.0355337
head 2.5392 -0.604072 0.17482
rclavicle 9.97689e-015 1.59028e-014
rhumerus -97.1965 -34.7522 14.8415
rradius 10.7104
rwrist 67.8189
rhand -15.5121 -34.1656
rfingers 7.12502
rthumb 10.6708 -63.8746
lclavicle 9.97689e-015 1.59028e-014
lhumerus -20.553 -2.1575 79.9493
lradius 59.3517
lwrist 11.9107
lhand -19.8321 -19.5228
lfingers 7.12502
lthumb 6.50193 10.3574
rfemur -51.9198 -2.55898 23.358
rtibia 32.2936
rfoot -4.37155 2.99145
rtoes -30.714
lfemur -1.56134 0.452615 -20.2491
ltibia 34.7973
lfoot -1.91303 -17.1671
ltoes -19.4491
84
root -0.218876 15.8847 -22.4587 16.9423 4.83421 0.646038
lowerback -14.8772 -3.4393 1.88965
upperback -5.31094 -4.87873 1.93136
thorax 2.71187 -2.4242 0.135423
lowerneck -3.81719 -0.88524 -1.16557
upperneck 6.33965 -1.08788 -0.35534
head 2.67275 -0.581265 0.0491794
rclavicle 1.55728e-015 1.90833e-014
rhumerus -97.0884 -35.1104 14.5582
rradius 10.8128
rwrist 67.4119
rhand -15.2177 -34.5066
rfingers 7.12502
rthumb 10.9548 -64.2008
lclavicle 1.55728e-015 1.90833e-014
lhumerus -21.7806 -1.69931 80.1941
lradius 59.7862
lwrist 12.2033
lhand -20.0104 -19.6577
lfingers 7.12502
lthumb 6.3298 10.2278
rfemur -52.1424 -1.90885 23.5099
rtibia 34.634
rfoot -5.33441 2.82172
rtoes -27.9773
lfemur -2.48519 0.229611 -19.6816
ltibia 37.9392
lfoot 4.07551 -16.7293
ltoes -13.2998
85
root -0.222511 15.8529 -22.2233 16.8251 4.49396 0.295714
lowerback -14.6919 -3.27001 2.26721
upperback -5.32051 -4.70938 2.09912
thorax 2.5876 -2.34328 0.14
lowerneck -3.65595 -0.879208 -1.06813
upperneck 6.08764 -1.06894 -0.674675
head 2.55547 -0.578111 -0.0671266
rclavicle 1.54322e-014 2.06736e-014
rhumerus -97.6464 -35.4525 15.5861
rradius 10.8667
rwrist 68.0923
rhand -14.7463 -33.6208
rfingers 7.12502
rthumb 11.4095 -63.2904
lclavicle 1.54322e-014 2.06736e-014
lhumerus -22.9825 -1.29627 80.4641
lradius 60.1241
lwrist 12.5229
lhand -20.5394 -19.794
lfingers 7.12502
lthumb 5.81904 10.1061
rfemur -52.3393 -0.93655 23.5786
rtibia 36.826
rfoot -6.01216 3.28405
rtoes -23.5118
lfemur -3.48951 0.244825 -19.2054
ltibia 40.9043
lfoot 8.29015 -16.4049
ltoes -9.24122
86
root -0.222997 15.8524 -21.9884 16.7731 4.17022 0.104017
lowerback -14.6202 -3.15255 2.51371
upperback -5.23003 -4.59552 2.24679
thorax 2.63828 -2.28637 0.175812
lowerneck -3.67189 -0.846956 -1.13598
upperneck 5.79836 -1.01105 -0.877563
head 2.46106 -0.555235 -0.117052
rclavicle 3.06408e-015 7.15625e-015
rhumerus -98.8402 -36.0464 17.7168
rradius 10.8686
rwrist 69.5989
rhand -14.5386 -33.0581
rfingers 7.12502
rthumb 11.6097 -62.7165
lclavicle 3.06408e-015 7.15625e-015
lhumerus -23.879 -0.779952 80.7485
lradius 60.1672
lwrist 12.7435
lhand -21.16 -20.2523
lfingers 7.12502
lthumb 5.21983 9.66345
rfemur -52.3772 -0.176974 23.6138
rtibia 38.5997
rfoot -6.66239 3.52675
rtoes -21.2886
lfemur -4.91188 0.454822 -18.9594
ltibia 43.9061
lfoot 10.8055 -17.1364
ltoes -10.6999
87
root -0.219896 15.8582 -21.7515 16.7054 3.96555 -0.0569606
lowerback -14.5006 -3.02651 2.85865
upperback -5.11937 -4.47824 2.28865
thorax 2.66832 -2.22888 0.0494128
lowerneck -4.0337 -0.773556 -1.11175
upperneck 5.70173 -0.905474 -0.940504
head 2.49515 -0.5042 -0.139152
rclavicle -1.37286e-015 -8.74653e-015
rhumerus -98.3964 -36.9189 16.6098
rradius 10.9066
rwrist 68.3816
rhand -14.696 -33.6828
rfingers 7.12502
rthumb 11.4579 -63.3497
lclavicle -1.37286e-015 -8.74653e-015
lhumerus -24.5821 -0.398736 80.9996
lradius 59.7707
lwrist 12.7178
lhand -21.8193 -20.4562
lfingers 7.12502
lthumb 4.58326 9.47424
rfemur -52.1612 0.0163335 23.9046
rtibia 39.9158
rfoot -7.35754 3.49031
rtoes -18.7566
lfemur -6.31622 0.511794 -18.7508
ltibia 46.9338
lfoot 12.9469 -17.8846
ltoes -12.4632
88
root -0.219343 15.8741 -21.5135 16.6191 3.89876 -0.299011
lowerback -14.4024 -2.91851 3.2413
upperback -5.05253 -4.3883 2.33361
thorax 2.66139 -2.18557 -0.098898
lowerneck -4.11333 -0.753056 -1.00283
upperneck 5.4521 -0.880025 -1.0456
head 2.42563 -0.49085 -0.189713
rclavicle 2.44132e-015 -2.46493e-014
rhumerus -95.9097 -37.8279 12.0229
rradius 10.9815
rwrist 64.4625
rhand -15.0193 -35.0745
rfingers 7.12502
rthumb 11.1461 -64.7585
lclavicle 2.44132e-015 -2.46493e-014
lhumerus -25.4891 -0.0590061 81.3341
lradius 59.4386
lwrist 12.6038
lhand -22.8007 -19.8581
lfingers 7.12502
lthumb 3.63558 10.0906
rfemur -51.6477 -0.166485 24.4794
rtibia 40.8302
rfoot -8.17962 3.63197
rtoes -16.1634
lfemur -7.77582 0.392364 -18.4315
ltibia 49.9811
lfoot 16.1125 -17.6046
ltoes -13.7009
89
root -0.220102 15.9053 -21.2755 16.564 4.01379 -0.307991
lowerback -14.1444 -2.91704 3.32425
upperback -5.1752 -4.38182 2.37572
thorax 2.39111 -2.18832 -0.0808757
lowerneck -3.81578 -0.775921 -1.07894
upperneck 5.27912 -0.913262 -1.03072
head 2.31396 -0.506535 -0.170793
rclavicle 2.54227e-014 1.59028e-015
rhumerus -94.0312 -38.357 8.73484
rradius 11.075
rwrist 61.6921
rhand -15.1401 -35.9121
rfingers 7.12502
rthumb 11.0297 -65.6023
lclavicle 2.54227e-014 1.59028e-015
lhumerus -26.5158 0.291354 81.79
lradius 59.1242
lwrist 12.6961
lhand -23.6417 -19.5138
lfingers 7.12502
lthumb 2.8234 10.4473
rfemur -50.9497 -0.582168 24.8321
rtibia 41.46
rfoot -9.0337 4.12246
rtoes -13.7586
lfemur -9.47042 0.114105 -18.3372
ltibia 52.9823
lfoot 19.8931 -16.0865
ltoes -13.5338
90
root -0.226723 15.9448 -21.0466 16.492 4.18055 -0.18493
lowerback -14.0895 -2.91112 3.17776
upperback -5.09963 -4.3544 2.36996
thorax 2.45252 -2.17199 -0.00100294
lowerneck -3.66906 -0.813352 -1.20563
upperneck 5.11798 -0.970278 -0.845257
head 2.23554 -0.530685 -0.0909359
rclavicle 3.50109e-014 -1.43125e-014
rhumerus -94.5316 -39.1498 9.14256
rradius 11.1262
rwrist 61.7556
rhand -15.0294 -35.5768
rfingers 7.12502
rthumb 11.1363 -65.2613
lclavicle 3.50109e-014 -1.43125e-014
lhumerus -26.8711 0.511467 82.265
lradius 58.3952
lwrist 12.9189
lhand -23.7799 -19.121
lfingers 7.12502
lthumb 2.68996 10.8417
rfemur -50.1385 -0.908887 24.9572
rtibia 41.8208
rfoot -9.76409 4.24461
rtoes -11.7235
lfemur -11.4099 0.049584 -18.3571
ltibia 55.9483
lfoot 21.849 -15.1801
ltoes -16.5259
91
root -0.238213 15.9797 -20.8256 16.4772 4.31974 -0.274683
lowerback -13.8997 -2.79244 3.20977
upperback -5.06023 -4.19497 2.38744
thorax 2.39408 -2.09337 0.0328718
lowerneck -3.85355 -0.895413 -1.19671
upperneck 5.07839 -1.08169 -0.773658
head 2.25675 -0.584069 -0.0740597
rclavicle 1.59276e-014 7.15625e-015
rhumerus -95.7292 -39.9872 10.4789
rradius 11.0766
rwrist 62.6103
rhand -14.6856 -35.4325
rfingers 7.12502
rthumb 11.4679 -65.0989
lclavicle 1.59276e-014 7.15625e-015
lhumerus -27.1162 0.522385 82.7688
lradius 57.3296
lwrist 13.1228
lhand -23.4601 -18.7219
lfingers 7.12502
lthumb 2.99876 11.2367
rfemur -49.3091 -0.985676 25.2205
rtibia 42.0074
rfoot -10.5366 3.77666
rtoes -12.0026
lfemur -13.422 0.277937 -18.1427
ltibia 58.82
lfoot 21.3103 -14.9853
ltoes -22.0051
92
root -0.243764 16.0114 -20.6014 16.4879 4.49484 -0.507593
lowerback -13.7726 -2.64803 3.42337
upperback -4.9003 -4.03515 2.46624
thorax 2.4872 -2.0117 0.0214607
lowerneck -4.67494 -1.04012 -1.15586
upperneck 5.26544 -1.25404 -0.916653
head 2.46905 -0.67621 -0.137817
rclavicle 3.33958e-014 3.97569e-015
rhumerus -95.3372 -41.2879 9.28318
rradius 11.0575
rwrist 61.739
rhand -14.1634 -36.0749
rfingers 7.12502
rthumb 11.9715 -65.7126
lclavicle 3.33958e-014 3.97569e-015
lhumerus -26.9932 0.559615 83.3104
lradius 55.8708
lwrist 13.2589
lhand -23.2285 -19.0654
lfingers 7.12502
lthumb 3.22248 10.89
rfemur -48.4258 -1.15139 25.6543
rtibia 42.1494
rfoot -11.4701 3.40331
rtoes -13.5654
lfemur -15.3413 0.479929 -17.8086
ltibia 61.4862
lfoot 19.548 -13.8263
ltoes -25.4776
93
root -0.246838 16.0354 -20.3812 16.4876 4.71546 -0.867199
lowerback -13.7395 -2.45152 3.72163
upperback -5.1729 -3.80206 2.55043
thorax 2.17348 -1.90418 -0.011328
lowerneck -3.56963 -1.2471 -0.982736
upperneck 5.0605 -1.54594 -1.19299
head 2.19471 -0.821977 -0.255051
rclavicle -2.77056e-015 -1.51076e-014
rhumerus -93.5259 -41.6861 5.96869
rradius 11.2034
rwrist 59.3063
rhand -13.7433 -36.4392
rfingers 7.12502
rthumb 12.3766 -66.0529
lclavicle -2.77056e-015 -1.51076e-014
lhumerus -27.847 0.228974 83.9377
lradius 54.4049
lwrist 13.2941
lhand -23.4184 -19.2486
lfingers 7.12502
lthumb 3.03907 10.7095
rfemur -47.554 -1.41571 26.2635
rtibia 42.2793
rfoot -12.5529 3.16968
rtoes -15.2596
lfemur -17.1748 0.651401 -17.3244
ltibia 63.9666
lfoot 17.7667 -11.8865
ltoes -22.5071
94
root -0.253684 16.0456 -20.1705 16.5619 4.97224 -1.18336
lowerback -13.8542 -2.30149 3.91346
upperback -5.20772 -3.63642 2.67456
thorax 2.19814 -1.82152 0.0313165
lowerneck -3.38606 -1.42777 -0.863302
upperneck 5.02662 -1.78655 -1.39118
head 2.14695 -0.944091 -0.342939
rclavicle 2.85473e-014 7.15625e-015
rhumerus -92.2974 -42.6514 3.76959
rradius 11.255
rwrist 58.0128
rhand -13.6354 -36.3077
rfingers 7.12502
rthumb 12.4807 -65.915
lclavicle 2.85473e-014 7.15625e-015
lhumerus -28.2439 0.022585 84.6008
lradius 52.8743
lwrist 13.1654
lhand -23.7993 -19.186
lfingers 7.12502
lthumb 2.67123 10.777
rfemur -46.8235 -1.57091 26.7549
rtibia 42.4058
rfoot -13.2597 3.18654
rtoes -13.8857
lfemur -18.8119 0.752253 -16.8483
ltibia 66.2331
lfoot 14.1237 -10.6642
ltoes -19.1644
